<svg width="42" height="42" viewBox="0 0 42 42" fill="none" xmlns="http://www.w3.org/2000/svg">
<path d="M12.5834 33.5C10.2917 33.5 8.43754 35.375 8.43754 37.6666C8.43754 39.9583 10.2917 41.8333 12.5834 41.8333C14.875 41.8333 16.75 39.9583 16.75 37.6666C16.75 35.375 14.875 33.5 12.5834 33.5ZM0.083374 0.166626V4.33329H4.25004L11.75 20.1458L8.93754 25.25C8.60421 25.8333 8.41671 26.5208 8.41671 27.25C8.41671 29.5416 10.2917 31.4166 12.5834 31.4166H37.5834V27.25H13.4584C13.1667 27.25 12.9375 27.0208 12.9375 26.7291L13 26.4791L14.875 23.0833H30.3959C31.9584 23.0833 33.3334 22.2291 34.0417 20.9375L41.5 7.41663C41.6667 7.12496 41.75 6.77079 41.75 6.41663C41.75 5.27079 40.8125 4.33329 39.6667 4.33329H8.85421L6.89587 0.166626H0.083374ZM33.4167 33.5C31.125 33.5 29.2709 35.375 29.2709 37.6666C29.2709 39.9583 31.125 41.8333 33.4167 41.8333C35.7084 41.8333 37.5834 39.9583 37.5834 37.6666C37.5834 35.375 35.7084 33.5 33.4167 33.5Z" fill="white"/>
</svg>
